<svg xmlns="http://www.w3.org/2000/svg" width="1200" height="630" viewBox="0 0 1200 630">
  <rect width="1200" height="630" fill="#fbfcfd"/>
  <g stroke="#d2dae0" stroke-width="1">
    <path d="M0 90H1200M0 180H1200M0 270H1200M0 360H1200M0 450H1200M0 540H1200"/>
    <path d="M120 0V630M240 0V630M360 0V630M480 0V630M600 0V630M720 0V630M840 0V630M960 0V630M1080 0V630"/>
  </g>
  <circle cx="1020" cy="132" r="54" fill="#0f7c8a"/>
  <circle cx="1020" cy="132" r="76" fill="none" stroke="#0f7c8a" stroke-width="2"/>
  <path d="M88 116H260" stroke="#0f7c8a" stroke-width="8"/>
  <text x="88" y="258" fill="#131c24" font-family="Arial, Helvetica, sans-serif" font-size="76" font-weight="700">AI for (Public) Good</text>
  <text x="92" y="330" fill="#2a3742" font-family="Arial, Helvetica, sans-serif" font-size="34">Research projects shared as public goods.</text>
  <text x="92" y="522" fill="#5a6b76" font-family="Arial, Helvetica, sans-serif" font-size="24">Microsoft AI for Good Research Lab</text>
  <g fill="#0f7c8a">
    <rect x="88" y="572" width="16" height="16"/>
    <rect x="118" y="572" width="8" height="16"/>
    <rect x="140" y="572" width="4" height="16"/>
  </g>
</svg>
